<svg width="50" height="50" viewBox="0 0 50 50" fill="none" xmlns="http://www.w3.org/2000/svg">
<circle cx="25" cy="25" r="25" fill="white"/>
<path d="M17.983 20.197C19.1914 20.197 20.171 19.2174 20.171 18.009C20.171 16.8006 19.1914 15.821 17.983 15.821C16.7746 15.821 15.795 16.8006 15.795 18.009C15.795 19.2174 16.7746 20.197 17.983 20.197Z" fill="black"/>
<path d="M22.237 21.8549V33.9939H26.006V27.9909C26.006 26.4069 26.304 24.8729 28.268 24.8729C30.205 24.8729 30.229 26.6839 30.229 28.0909V33.9949H34V27.3379C34 24.0679 33.296 21.5549 29.474 21.5549C27.639 21.5549 26.409 22.5619 25.906 23.5149H25.855V21.8549H22.237ZM16.095 21.8549H19.87V33.9939H16.095V21.8549Z" fill="black"/>
</svg>
