<svg width="50" height="50" viewBox="0 0 50 50" fill="none" xmlns="http://www.w3.org/2000/svg">
<circle cx="25" cy="25" r="25" fill="white"/>
<path d="M33.9471 21.305C33.937 20.5476 33.7952 19.7977 33.5281 19.089C33.2964 18.4911 32.9426 17.9482 32.4892 17.4948C32.0359 17.0414 31.4929 16.6876 30.8951 16.456C30.1954 16.1933 29.4562 16.0513 28.7091 16.036C27.7471 15.993 27.4421 15.981 25.0001 15.981C22.5581 15.981 22.2451 15.981 21.2901 16.036C20.5432 16.0514 19.8044 16.1934 19.1051 16.456C18.5071 16.6874 17.9641 17.0412 17.5107 17.4946C17.0573 17.948 16.7036 18.491 16.4721 19.089C16.2089 19.7881 16.0672 20.5271 16.0531 21.274C16.0101 22.237 15.9971 22.542 15.9971 24.984C15.9971 27.426 15.9971 27.738 16.0531 28.694C16.0681 29.442 16.2091 30.18 16.4721 30.881C16.7039 31.4787 17.058 32.0215 17.5115 32.4747C17.965 32.9279 18.5081 33.2815 19.1061 33.513C19.8035 33.7862 20.5424 33.9383 21.2911 33.963C22.2541 34.006 22.5591 34.019 25.0011 34.019C27.4431 34.019 27.7561 34.019 28.7111 33.963C29.4582 33.9482 30.1974 33.8066 30.8971 33.544C31.4948 33.312 32.0376 32.9581 32.4909 32.5048C32.9442 32.0515 33.2982 31.5086 33.5301 30.911C33.7931 30.211 33.9341 29.473 33.9491 28.724C33.9921 27.762 34.0051 27.457 34.0051 25.014C34.0031 22.572 34.0031 22.262 33.9471 21.305ZM24.9941 29.602C22.4401 29.602 20.3711 27.533 20.3711 24.979C20.3711 22.425 22.4401 20.356 24.9941 20.356C26.2202 20.356 27.396 20.843 28.263 21.71C29.13 22.577 29.6171 23.7529 29.6171 24.979C29.6171 26.2051 29.13 27.3809 28.263 28.2479C27.396 29.1149 26.2202 29.602 24.9941 29.602ZM29.8011 21.263C29.2041 21.263 28.7231 20.781 28.7231 20.185C28.7231 20.0435 28.7509 19.9033 28.8051 19.7726C28.8592 19.6419 28.9386 19.5231 29.0387 19.423C29.1387 19.323 29.2575 19.2436 29.3882 19.1895C29.519 19.1353 29.6591 19.1075 29.8006 19.1075C29.9421 19.1075 30.0822 19.1353 30.2129 19.1895C30.3436 19.2436 30.4624 19.323 30.5625 19.423C30.6625 19.5231 30.7419 19.6419 30.7961 19.7726C30.8502 19.9033 30.8781 20.0435 30.8781 20.185C30.8781 20.781 30.3961 21.263 29.8011 21.263Z" fill="black"/>
<path d="M24.9942 27.9821C26.6527 27.9821 27.9972 26.6376 27.9972 24.9791C27.9972 23.3206 26.6527 21.9761 24.9942 21.9761C23.3357 21.9761 21.9912 23.3206 21.9912 24.9791C21.9912 26.6376 23.3357 27.9821 24.9942 27.9821Z" fill="black"/>
</svg>
