<svg width="50" height="50" viewBox="0 0 50 50" fill="none" xmlns="http://www.w3.org/2000/svg">
<circle cx="25" cy="25" r="25" fill="white"/>
<path d="M35 18.9069C34.2504 19.2343 33.4565 19.449 32.644 19.5439C33.4968 19.0432 34.138 18.249 34.448 17.3099C33.64 17.7802 32.7587 18.1115 31.841 18.2899C31.4545 17.8851 30.9897 17.5633 30.4748 17.3441C29.9598 17.1249 29.4056 17.0129 28.846 17.0149C26.58 17.0149 24.743 18.8249 24.743 21.0549C24.743 21.3709 24.779 21.6799 24.849 21.9749C23.2236 21.8976 21.6321 21.4823 20.1762 20.7556C18.7202 20.0288 17.4318 19.0065 16.393 17.7539C16.0288 18.3683 15.8374 19.0697 15.839 19.7839C15.8397 20.4519 16.0068 21.1092 16.3253 21.6963C16.6438 22.2835 17.1035 22.782 17.663 23.1469C17.0125 23.1259 16.376 22.9522 15.805 22.6399V22.6899C15.805 24.6479 17.22 26.2809 19.095 26.6529C18.7426 26.7464 18.3796 26.7938 18.015 26.7939C17.75 26.7939 17.493 26.7689 17.242 26.7189C17.5101 27.5268 18.0231 28.2312 18.7098 28.7343C19.3965 29.2373 20.2228 29.514 21.074 29.5259C19.6141 30.6505 17.8218 31.258 15.979 31.2529C15.647 31.2529 15.321 31.2329 15 31.1969C16.8813 32.3876 19.0626 33.0182 21.289 33.0149C28.836 33.0149 32.962 26.8579 32.962 21.5189L32.948 20.9959C33.7529 20.4296 34.4481 19.7218 35 18.9069Z" fill="black"/>
</svg>
